<?xml version="1.0" encoding="utf-8"?>
<svg enable-background="new 0 0 1024 1024" id="Layer_1" version="1.1" viewBox="0 0 1024 1024" width="100%" x="0px" xml:space="preserve" xmlns="http://www.w3.org/2000/svg" xmlns:xlink="http://www.w3.org/1999/xlink" y="0px">
<path d=" M683.781128,804.354370   C677.754211,804.771667 673.958435,801.495972 670.451355,797.842224   C663.874390,790.990234 657.388794,784.049927 650.899841,777.114075   C645.022461,770.832092 644.931885,770.602173 637.427979,774.543884   C617.387268,785.071106 595.981262,791.790955 574.253052,797.664429   C573.291931,797.924194 572.320618,798.178772 571.337341,798.318726   C560.381287,799.878540 560.453125,799.879700 559.353455,810.899475   C558.529663,819.154480 557.926147,827.467712 556.438354,835.611389   C554.341431,847.089355 549.592651,851.056519 538.004944,851.187012   C518.692749,851.404480 499.389130,850.755615 480.127716,849.270508   C474.021759,848.799744 470.197144,844.982910 468.979706,837.652161   C467.293488,827.498779 465.662720,817.297119 464.878357,807.049561   C464.486450,801.929016 462.572571,799.637268 457.880554,798.416992   C441.294952,794.103577 424.929901,789.053406 408.711945,783.493835   C400.774719,780.773010 393.458160,776.832214 386.058228,773.039734   C383.247375,771.599121 381.364990,771.886536 378.983368,774.003540   C372.126495,780.098511 365.319885,786.207947 359.382538,793.241333   C357.238342,795.781433 354.890564,798.183044 352.419189,800.407227   C345.624298,806.522461 342.116730,807.221924 334.722229,801.866516   C317.591431,789.459534 300.772949,776.617065 283.963104,763.774048   C279.582672,760.427307 279.673737,754.589172 283.621826,747.878113   C288.772736,739.122559 293.958679,730.387329 299.164886,721.664490   C304.002930,713.558472 303.827972,713.751587 297.575104,706.998535   C283.822235,692.145508 271.933472,675.796997 262.187927,658.129578   C257.147400,648.991760 251.481522,645.497864 241.135315,648.010071   C233.588974,649.842407 225.847427,651.144287 218.198105,652.700684   C209.559341,654.458435 205.810379,653.016296 202.857315,645.003967   C195.494339,625.026672 188.491821,604.907593 184.434219,583.930359   C182.693161,574.929382 183.607697,573.229553 191.995300,569.074341   C200.352219,564.934387 208.746231,560.857849 217.241486,557.013184   C221.627731,555.028198 223.139709,552.267151 222.909271,547.304688   C222.144730,530.839966 221.140732,514.364807 221.732437,497.863617   C222.030655,489.547394 222.141144,481.212341 222.831619,472.927094   C223.216904,468.303864 221.382599,465.893738 217.441635,464.036530   C207.950256,459.563751 198.685364,454.600403 189.123734,450.290558   C183.930847,447.949860 182.870834,444.195618 183.897675,439.359131   C188.146545,419.346771 194.068756,399.766968 199.447403,380.047760   C200.055969,377.816681 200.991165,375.628448 202.081970,373.584229   C204.811127,368.469574 208.602737,366.578094 214.408966,367.591614   C224.548492,369.361633 234.653870,371.326599 244.777481,373.188568   C253.040085,374.708221 253.920929,374.250977 257.780914,366.872375   C267.993256,347.350800 282.493408,330.982941 296.541412,314.289581   C304.234558,305.147736 304.074005,307.615326 297.852600,297.015564   C292.966675,288.691132 286.938324,281.048767 282.901581,272.212433   C279.182678,264.071747 279.518280,261.695740 286.609863,256.447357   C303.479675,243.962219 320.490662,231.665619 337.552368,219.443283   C343.235840,215.371872 347.519257,215.900040 352.601166,221.271164   C360.862579,230.002670 369.851135,237.928955 378.754395,245.970505   C381.479340,248.431686 383.799408,249.206589 387.184357,247.591583   C410.132507,236.642639 434.169281,228.980118 459.125824,224.211853   C462.693420,223.530212 464.455353,222.102234 464.975037,218.168365   C466.604492,205.833755 468.782990,193.572586 470.652496,181.268326   C471.362457,176.595520 474.731873,173.169815 479.619324,172.730606   C498.082703,171.071411 516.521301,171.379745 534.935242,173.507172   C536.419006,173.678604 537.943176,173.751053 539.427917,173.625381   C552.842773,172.490005 555.915771,179.237106 557.056763,189.576996   C558.076477,198.817337 559.534546,208.003586 560.390991,217.259796   C560.744019,221.074936 562.155884,223.332779 566.524963,224.247437   C591.662598,229.509888 616.308411,236.402267 639.219055,248.403015   C642.173035,249.950333 644.453613,249.445480 646.919189,247.361740   C654.957275,240.568405 662.528198,233.341614 669.092712,225.080826   C677.413330,214.610184 683.305969,213.723969 693.991089,221.810501   C709.662964,233.671112 725.929749,244.761734 740.804932,257.659210   C745.734924,261.933777 746.126953,264.507172 742.961060,270.263062   C737.100830,280.917725 731.423035,291.681610 725.227722,302.138397   C722.993042,305.910309 723.485352,308.329163 726.258667,311.300079   C736.832092,322.626770 747.544189,333.866730 755.843323,347.066711   C760.808167,354.963501 765.622681,362.957397 770.365356,370.989960   C772.141846,373.998718 774.269836,374.826385 777.799194,374.289886   C788.977173,372.590668 800.044556,370.386566 811.087708,368.001007   C817.852173,366.539795 821.101746,367.936035 823.930115,374.370453   C828.557678,384.898285 830.978760,396.187866 834.490540,407.104767   C837.951416,417.863617 840.764526,428.811127 842.940247,439.910889   C844.184570,446.258942 843.521301,447.627411 837.593689,450.454010   C827.219971,455.400757 816.852234,460.363098 806.406372,465.153931   C802.289551,467.042053 800.650085,469.638062 801.792908,474.250214   C803.036438,479.268707 802.511963,484.517517 802.946899,489.658630   C804.534119,508.416748 804.557434,527.235596 802.651550,545.970825   C802.110168,551.293274 803.342712,554.266541 808.270325,556.555420   C818.535278,561.323608 828.759766,566.208191 838.575989,571.901611   C843.171265,574.566772 844.666260,577.990662 843.122009,583.114441   C836.932983,603.649353 831.436890,624.397888 824.408386,644.672913   C821.070740,654.300842 818.449341,655.468384 808.225708,653.615112   C797.934265,651.749512 787.597229,650.135498 777.280273,648.410522   C772.931702,647.683411 769.881897,648.646301 767.605774,653.135010   C756.749817,674.544373 742.196716,693.371399 725.883423,710.854797   C723.363098,713.555908 723.237427,715.537354 724.876892,718.693054   C729.488953,727.570923 734.375122,736.281250 739.549744,744.837158   C740.497742,746.404663 741.464722,747.968262 742.291626,749.600220   C746.872253,758.640442 746.269958,760.628235 737.791809,766.333191   C723.681885,775.827820 710.265747,786.249512 697.036682,796.925781   C693.176086,800.041321 689.389954,803.439636 683.781128,804.354370  M562.093628,749.543152   C563.218811,749.248901 564.334045,748.907532 565.470642,748.667236   C603.868896,740.547974 638.300720,724.100952 667.856201,698.286804   C718.244690,654.276794 750.044678,600.301575 754.976257,532.290466   C756.413696,512.466064 756.290466,492.661743 753.433105,473.025269   C746.808594,427.499725 727.812805,387.658844 697.557373,352.994965   C675.667236,327.915222 649.747620,307.795197 620.372864,292.785889   C596.677917,280.678680 571.294128,272.410065 544.522034,269.103638   C519.544312,266.018738 494.721008,266.583832 469.993652,270.865570   C442.009583,275.711212 415.816528,285.236450 391.461761,300.190125   C353.236694,323.660004 321.875641,353.609772 299.864868,393.009644   C279.524628,429.419220 270.191071,468.614868 269.322174,510.079437   C269.038391,523.620911 270.885437,536.912292 273.195953,550.197876   C280.621796,592.896301 297.194641,631.601746 325.242706,664.714783   C348.741974,692.457642 375.335297,716.228149 409.435577,731.436707   C458.468018,753.304871 508.599457,760.649963 562.093628,749.543152  z" fill="#FFFFFF" opacity="1.000000" stroke="#FFFFFF"/>
<path d=" M424.240295,498.971466   C427.737488,518.292542 431.181580,537.186035 434.645447,556.187927   C438.889648,556.035522 439.003143,552.964600 439.635406,550.567383   C447.011353,522.600952 454.206726,494.586456 461.688568,466.648590   C468.051849,442.887390 473.710022,418.937988 480.737640,395.352081   C481.722168,392.047821 483.148438,390.658691 486.878052,390.453735   C504.708893,389.473785 522.475708,390.385284 540.249634,391.521576   C541.246216,391.585327 542.306396,391.806671 543.236755,391.566498   C548.706421,390.154572 550.817444,392.035187 552.102722,397.792419   C560.717651,436.379181 569.788269,474.864410 578.776733,513.367310   C581.834961,526.467407 585.082275,539.523499 588.244141,552.599426   C588.738098,554.642029 589.058350,556.787537 591.467041,558.392090   C594.307556,553.102112 594.542603,547.563782 595.570984,542.315735   C604.862366,494.901062 613.993530,447.455048 623.222717,400.028107   C625.009766,390.844513 625.115967,390.982330 634.685181,390.676025   C654.959961,390.027161 675.205872,390.536011 695.399841,391.703735   C696.301575,393.365601 695.472595,394.792786 695.052185,396.136719   C680.895081,441.390381 670.329773,487.601410 658.336487,533.432739   C647.941772,573.155151 638.024841,613.006165 626.642639,652.468750   C625.554565,656.241028 623.866089,657.448120 620.045959,657.402161   C604.050598,657.209961 588.051147,657.374268 572.054443,657.252319   C567.573853,657.218140 563.101501,656.502075 558.617554,656.375610   C554.822083,656.268494 554.566589,653.309753 553.960205,650.873657   C550.148010,635.557556 546.519653,620.195862 542.751343,604.868713   C534.340454,570.658264 525.893250,536.456726 517.407593,502.264771   C517.067017,500.892609 516.938232,499.236481 515.276855,498.416962   C512.362976,498.498352 512.067505,501.054993 511.537994,502.959198   C503.076538,533.388550 494.676117,563.835022 486.341461,594.299316   C481.034607,613.696716 475.778687,633.109009 470.699341,652.566711   C469.811310,655.968506 468.067108,657.208496 464.788177,657.264648   C444.123535,657.618347 423.475494,657.043030 402.826172,656.360596   C399.325470,656.244873 399.067810,653.838806 398.438354,651.380493   C390.852600,621.755310 383.484711,592.071167 375.565887,562.534912   C361.706451,510.840790 348.591919,458.946686 333.999908,407.448730   C332.515503,402.210022 331.305969,396.893402 330.016479,391.800934   C331.620148,390.387726 333.176208,390.776489 334.629303,390.772369   C351.126617,390.725739 367.624603,390.622406 384.121124,390.727722   C389.767883,390.763733 395.407806,391.476990 401.057373,391.615479   C403.945221,391.686188 404.782562,393.403717 405.191650,395.653931   C409.587524,419.834808 413.916901,444.027802 418.341431,468.203369   C420.195526,478.334167 422.233063,488.431366 424.240295,498.971466  z" fill="#FFFFFF" opacity="1.000000" stroke="#FFFFFF"/>
</svg>